<svg version="1.1" id="Layer_1" xmlns="http://www.w3.org/2000/svg" xmlns:xlink="http://www.w3.org/1999/xlink" x="0px" y="0px" enable-background="new 0 0 1024 1008" xml:space="preserve" viewBox="303.67 181.35 421.5 690.18">
<path fill="#ffffff" opacity="1.000000" stroke="none" d=" M364.255188,624.727295   C362.438446,622.749084 360.931793,620.963257 359.297089,619.303467   C355.941223,615.896179 351.421387,616.821716 350.675812,621.485718   C349.739624,627.342285 348.957947,633.448547 353.421112,638.635803   C355.988556,641.619812 357.188354,645.069885 357.168335,649.180542   C357.032684,677.011108 357.084564,704.842590 357.036896,732.673706   C357.034210,734.245850 357.693848,735.992493 356.060852,737.627258   C352.092499,735.827759 350.113617,732.006897 347.803711,728.787598   C324.042725,695.671936 308.622559,659.253662 305.000488,618.339478   C303.927887,606.223694 303.891144,594.051331 303.891571,581.880981   C303.893402,529.051758 303.731506,476.222565 303.727600,423.393341   C303.726837,412.964752 302.581909,413.824860 313.530945,413.824554   C447.188416,413.820801 580.845886,413.838593 714.503357,413.850586   C715.669922,413.850677 716.836914,413.825958 718.002991,413.849579   C724.440063,413.979889 725.166016,414.652710 725.161011,421.097839   C725.133667,456.095367 725.059326,491.092926 725.026062,526.090454   C725.002625,550.750732 725.452698,575.422729 724.329285,600.063354   C722.620300,637.548706 712.091858,672.492554 692.718018,704.636292   C687.148071,713.877502 682.161133,723.600891 674.383423,731.355347   C673.015259,732.719360 672.117676,734.689758 669.924255,735.080322   C668.414490,734.146851 668.939026,732.674744 668.933044,731.439209   C668.798279,703.442627 668.720581,675.445679 668.562134,647.449219   C668.546753,644.734802 669.335022,642.587219 671.450684,640.894836   C674.529480,638.431946 675.790100,635.228271 675.787292,631.269653   C675.753052,582.440247 675.751038,533.610840 675.858215,484.781616   C675.867188,480.700439 674.470215,479.027344 670.358948,479.200165   C659.907410,479.639587 659.541748,477.261047 659.676392,489.755219   C660.123596,531.241211 660.453186,572.738770 659.468872,614.227600   C659.401733,617.059326 659.200195,619.915955 659.471252,622.721375   C659.910645,627.269226 658.975952,631.051147 655.755920,634.592712   C652.447205,638.231689 652.379456,643.139893 652.379456,647.855042   C652.379517,678.019592 652.046814,708.190186 652.583679,738.345276   C652.754272,747.929321 649.068115,755.053589 643.042969,761.562805   C641.148682,763.609314 639.366638,765.937073 635.580139,763.047546   C631.964661,760.288635 620.688232,767.674866 620.363037,773.445618   C619.878967,782.032471 614.413208,786.767212 608.776733,791.741577   C605.756104,794.407227 603.974915,793.358521 603.199890,789.896423   C602.769287,787.972839 602.751038,785.930054 602.750732,783.940979   C602.742920,728.444946 602.785706,672.948975 602.719971,617.453003   C602.715637,613.797729 604.048889,611.179077 606.540833,608.662781   C617.091797,598.009033 627.441345,587.155334 638.025757,576.535522   C641.553284,572.996155 643.061951,569.157715 643.034119,564.094543   C642.850891,530.764771 642.917358,497.433624 642.918396,464.102936   C642.918457,461.348389 643.038452,458.695007 639.324890,458.063904   C636.764832,457.628784 636.638489,455.521759 636.653320,453.404572   C636.696472,447.246399 636.703186,441.087799 636.682068,434.929474   C636.675232,432.945404 636.915466,430.443115 634.010010,430.522766   C630.727722,430.612732 631.279602,433.249634 631.540222,435.389679   C632.304016,441.662323 633.130737,447.927307 633.934509,454.195068   C634.205017,456.304443 634.220093,458.542206 631.578491,458.900055   C627.389709,459.467377 627.321350,462.256958 627.323547,465.455383   C627.343811,494.953339 627.095459,524.453857 627.442505,553.947571   C627.529541,561.342163 625.482727,566.717590 620.194763,571.984619   C610.631836,581.509644 601.010620,590.968384 591.165222,600.195068   C587.774902,603.372314 586.289185,606.824402 586.295837,611.589539   C586.382935,673.751831 586.172180,735.914795 586.393616,798.076294   C586.418213,804.968994 584.390625,809.964111 579.187439,814.032104   C578.272034,814.747864 577.518799,815.670471 576.606384,816.390808   C574.988953,817.667786 574.010437,820.725037 571.587891,819.769775   C569.002380,818.750305 568.958801,815.678589 568.930664,813.201172   C568.805847,802.203308 568.630310,791.200256 568.855652,780.206848   C568.955261,775.345581 567.223145,773.754822 562.425964,774.033020   C552.782410,774.592163 552.463379,774.671509 552.429199,784.445740   C552.374390,800.110901 552.396973,815.776367 552.377197,831.441711   C552.371033,836.337646 544.922729,846.367859 540.339539,847.822144   C538.418030,848.431824 537.560791,847.307495 536.773438,845.967102   C535.706543,844.150879 535.835510,842.127441 535.841125,840.124573   C535.920593,811.793701 535.985474,783.462830 536.075562,755.131958   C536.087219,751.476257 536.298706,747.820374 536.271118,744.165649   C536.249756,741.324951 534.748108,740.192017 531.818481,740.105225   C523.366455,739.855164 519.974121,743.177551 520.000427,751.581421   C520.109375,786.411560 520.169250,821.242004 520.119263,856.072205   C520.111084,861.790955 519.518250,867.478149 513.555420,870.740112   C511.702057,871.754028 510.361694,871.923096 508.653625,870.447449   C504.823425,867.138367 502.238068,863.527161 502.585175,858.021301   C502.993347,851.545959 502.801392,845.027588 502.736938,838.529175   C502.669067,831.684265 502.069916,831.085205 495.309082,829.868469   C492.532990,829.368774 489.763184,828.916077 486.676208,829.303894   C485.134003,837.080750 487.744019,845.247681 484.820587,852.894043   C477.821899,850.842285 471.023254,842.255615 470.718231,835.740112   C469.767242,815.426636 469.898773,795.102905 469.942535,774.777771   C469.947968,772.252441 470.988647,768.726379 467.814575,767.715759   C463.900269,766.469421 459.515167,766.130432 455.568176,767.679504   C453.427155,768.519836 454.247040,771.217957 454.236572,773.141663   C454.151276,788.806274 454.159698,804.471497 454.036804,820.135742   C454.018005,822.528748 454.442047,825.158752 452.445892,827.143311   C444.135864,823.878296 437.936646,815.327209 437.903168,807.009460   C437.846161,792.844055 437.875366,778.678284 437.822357,764.512817   C437.813171,762.058044 438.361176,758.730286 435.504211,757.957703   C431.439606,756.858521 427.096436,755.298035 422.848267,756.917969   C420.925964,757.650940 421.306458,760.055664 421.296936,761.863770   C421.248779,771.029480 421.204041,780.195496 421.236664,789.361145   C421.249146,792.869141 420.443451,796.188232 419.563202,800.831299   C412.956573,794.274475 405.569153,790.166870 405.602051,779.974365   C405.755798,732.334473 405.576721,684.693359 405.472504,637.052795   C405.461945,632.226257 405.100098,627.401550 405.007019,622.573914   C404.948334,619.528992 403.519989,617.248962 401.577271,615.051208   C392.732819,605.045532 382.888855,596.042969 373.255768,586.836975   C369.999359,583.724976 368.658295,580.418884 368.686371,575.848694   C368.861572,547.351868 368.754364,518.853271 368.720490,490.355225   C368.718109,488.359131 368.747681,486.330048 368.415649,484.375214   C367.953857,481.656433 366.833282,479.492645 363.363037,480.788666   C362.754059,481.016113 362.062378,481.154541 361.416473,481.130493   C353.018616,480.817719 353.107880,480.808350 353.112976,489.010681   C353.132416,520.341675 353.144958,551.672852 353.005066,583.003296   C352.985931,587.288391 354.118317,590.497742 357.292297,593.567566   C366.869995,602.831177 376.071472,612.482483 385.526306,621.875244   C388.183044,624.514587 389.369568,627.364441 389.359131,631.176880   C389.240082,674.673645 389.255707,718.170837 389.245148,761.667908   C389.244385,764.825623 389.168945,767.948425 386.985443,771.354675   C380.439606,765.780151 373.862854,760.747864 373.559448,751.421875   C372.388702,715.437195 372.921082,679.436829 373.134460,643.449036   C373.182953,635.273804 370.071777,629.876587 364.255188,624.727295  M502.770050,811.812439   C502.782623,789.817444 502.873688,767.821960 502.748383,745.827759   C502.719788,740.809448 504.169891,736.747253 507.879333,733.373230   C512.437378,729.227356 516.829651,724.899109 521.394958,720.761536   C524.555298,717.897339 525.947998,714.592224 525.934875,710.212952   C525.821899,672.385925 525.987915,634.557800 525.809814,596.731262   C525.775574,589.473206 527.694153,584.876099 535.046936,581.754883   C554.884827,573.333862 567.119507,549.713989 563.973511,528.470032   C561.934570,514.701660 555.307190,503.664856 544.554688,495.256165   C539.961914,491.664520 537.853210,487.812988 538.641907,482.132965   C538.914307,480.171570 538.682312,478.139709 538.675415,476.140015   C538.636475,464.809204 538.773682,453.473785 538.481140,442.149475   C538.334656,436.479828 536.452881,434.997162 531.550476,435.302856   C525.588440,435.674622 524.138672,437.129486 524.100769,442.794525   C524.038269,452.126068 524.119446,461.461548 523.856934,470.787384   C523.738098,475.010071 524.110718,479.344330 522.779602,483.682281   C520.359436,483.504852 518.221863,483.328064 516.081543,483.194672   C506.702728,482.610046 506.702423,482.614624 505.368683,472.968811   C504.297394,465.221405 502.425171,464.010071 494.579926,465.643066   C491.706879,466.241058 490.083466,467.544037 490.297455,470.674622   C490.592590,474.992096 490.623413,479.334503 491.087402,483.631653   C491.568176,488.084351 490.004456,491.012756 486.294830,493.685333   C472.307556,503.762360 464.128082,516.874939 463.601196,534.833923   C462.934570,557.556519 477.118652,578.434204 498.898560,584.781860   C507.301147,587.230774 510.136108,590.380737 510.164276,599.388489   C510.273315,634.215393 510.106415,669.043213 510.058990,703.870667   C510.053894,707.600220 508.606171,710.495117 505.865509,713.080322   C500.535278,718.108215 495.497314,723.444458 490.245667,728.557800   C487.926117,730.816406 487.071960,733.395630 487.082153,736.612305   C487.152008,758.607788 486.980072,780.604492 487.125702,802.599121   C487.213898,815.916138 485.735596,812.197083 498.264465,815.379395   C500.651184,815.985596 502.149384,815.101074 502.770050,811.812439  M386.306854,488.499939   C386.306152,515.659607 386.354614,542.819397 386.247498,569.978638   C386.232758,573.717285 387.145966,576.534973 389.957245,579.231384   C398.731598,587.647400 407.223328,596.358887 415.794006,604.986206   C419.403656,608.619629 422.051880,612.673035 422.043884,618.125916   C421.991241,653.949219 422.021790,689.772644 421.992493,725.596069   C421.989807,728.898865 420.918579,732.171143 421.963379,735.512146   C423.278259,739.716675 429.050140,743.310303 433.947571,742.608032   C439.355865,741.832520 437.714996,737.431213 437.721466,734.290894   C437.800415,695.968140 437.737854,657.645081 437.740112,619.322144   C437.740234,617.166748 437.622345,614.909790 438.190369,612.876404   C439.509949,608.152771 438.189606,604.588257 434.763763,601.183838   C424.956512,591.438110 415.411163,581.429199 405.638672,571.647827   C403.115814,569.122681 401.896454,566.480164 401.918274,562.832947   C402.034912,543.339233 401.938904,523.844360 401.918732,504.349854   C401.905609,491.686615 401.915680,479.023285 401.867676,466.360168   C401.858978,464.064331 402.154541,461.440857 398.701202,461.188873   C394.704346,460.897186 393.925262,458.209167 394.019684,454.883698   C394.184753,449.069550 393.335266,443.245605 394.378204,437.431305   C394.786194,435.156860 394.233124,432.575134 391.473541,432.612457   C388.557434,432.651764 389.361603,435.438507 389.371429,437.314789   C389.376526,438.290771 389.803925,439.257172 389.954498,440.241028   C390.709473,445.174866 391.485748,450.106293 392.152710,455.052338   C392.513123,457.724884 392.138885,460.010071 388.841492,460.734650   C386.324921,461.287659 386.273193,463.415314 386.282104,465.505859   C386.313293,472.837128 386.302246,480.168549 386.306854,488.499939  M619.242554,662.500000   C619.227478,688.996338 619.213989,715.492676 619.196472,741.989014   C619.189270,752.786804 619.123962,752.627502 629.362488,748.688843   C633.973694,746.914856 635.900085,744.534058 635.854614,739.192627   C635.548218,703.200134 635.711853,667.203796 635.583008,631.209290   C635.567505,626.873169 636.977295,623.535950 639.952759,620.510010   C644.319702,616.068970 646.114990,603.368713 643.219971,596.891113   C635.923279,603.672119 629.255676,610.806946 622.648071,618.019470   C620.235535,620.652893 619.145508,623.426575 619.190308,627.005432   C619.334229,638.502014 619.243835,650.001587 619.242554,662.500000  M553.311707,621.528076   C553.285217,627.519775 553.240967,633.511536 553.235413,639.503235   C553.215637,660.807190 553.185486,682.111145 553.231140,703.414978   C553.236145,705.760742 552.466614,708.617737 555.888550,709.616821   C563.329102,711.789062 568.921631,707.753235 568.936340,700.193054   C568.980530,677.391357 568.636841,654.578430 569.279968,631.793457   C569.539673,622.593323 567.482605,614.350342 563.726562,606.314697   C561.878296,602.360474 559.526672,598.580444 554.284241,596.575439   C553.942200,605.004028 553.626892,612.772034 553.311707,621.528076  M454.267029,647.503784   C454.249603,658.478577 454.351227,669.455505 454.152374,680.427002   C454.079376,684.452393 455.856384,686.251770 459.590363,686.607117   C461.244965,686.764648 462.907288,686.838867 464.563995,686.976501   C468.082611,687.268616 469.750793,685.871826 469.727570,682.132324   C469.622467,665.171814 469.663086,648.210449 469.647522,631.249390   C469.645966,629.552429 469.510529,627.926147 467.851532,626.877136   C462.454010,623.464172 454.709351,627.198608 454.359497,633.539001   C454.121613,637.849976 454.283234,642.183044 454.267029,647.503784  M454.239441,709.613525   C454.246429,720.081543 454.272095,730.549500 454.255188,741.017517   C454.238403,751.410706 454.788910,751.859009 465.364014,750.904053   C468.146942,750.652771 469.700317,749.659058 469.695587,746.688293   C469.673828,733.064331 469.698212,719.440308 469.693115,705.816345   C469.691986,702.768188 468.254028,701.020630 465.229828,700.097412   C456.957184,697.571838 454.139984,699.679138 454.239441,709.613525  M610.646790,486.750336   C611.293335,482.040253 609.168579,480.350830 604.623230,481.075012   C602.993225,481.334686 601.308655,481.299561 599.648376,481.310699   C596.725525,481.330383 595.384094,482.915497 595.383728,485.675476   C595.381836,498.967682 595.290405,512.262390 595.532410,525.550720   C595.612671,529.962585 598.575073,531.009155 605.999695,530.842163   C610.260864,530.746277 610.808411,528.523376 610.774231,525.076599   C610.650574,512.615356 610.678955,500.152649 610.646790,486.750336  M419.294128,527.842834   C419.359406,534.175232 423.280609,531.243774 426.481476,531.114014   C433.496552,530.829529 433.955872,530.739929 434.013062,523.829773   C434.110535,512.040894 434.082184,500.250336 434.019440,488.460968   C433.987732,482.503632 431.999023,480.843231 425.584564,481.080780   C420.307007,481.276215 418.520264,483.390045 418.627899,489.125610   C418.864624,501.740234 419.057190,514.355713 419.294128,527.842834  M563.132385,482.484192   C563.146362,485.977875 563.040527,489.477112 563.202820,492.963867   C563.434326,497.938049 567.602600,498.096802 570.850891,498.113190   C573.987671,498.129028 577.748352,497.649567 577.727600,492.773438   C577.680786,481.791687 577.744629,470.809357 577.795654,459.827423   C577.808105,457.146057 577.057007,455.240326 573.918091,455.259277   C571.619812,455.273193 570.817017,453.865875 570.512207,451.788239   C569.982239,448.175232 569.347412,444.574768 568.645996,440.990692   C568.115723,438.281250 568.383972,435.334045 566.304016,432.950073   C565.790955,437.806458 566.188965,442.651398 565.691101,447.402405   C565.056763,453.455475 562.503479,459.185791 563.059753,465.524536   C563.523499,470.807709 563.139099,476.165344 563.132385,482.484192  M467.564209,487.732483   C467.596283,477.421478 467.680328,467.110260 467.639618,456.799561   C467.617462,451.194733 465.463409,446.225525 462.628906,440.886627   C460.017273,444.099121 459.233917,447.364410 458.933441,450.865906   C458.704071,453.538513 458.568878,456.293182 454.687744,456.355133   C452.448059,456.390869 452.257050,458.300873 452.293121,460.026001   C452.477020,468.824799 451.683655,477.642578 452.997467,486.423340   C453.498535,489.772095 453.379547,493.291534 458.003784,493.727417   C462.332886,494.135468 466.035950,493.438721 467.564209,487.732483  M561.003784,760.131409   C568.045837,759.214050 568.009033,759.213440 568.122375,752.278931   C568.239502,745.118958 568.490601,737.961182 568.587708,730.801086   C568.706848,722.006042 568.279846,721.741638 559.510559,723.108154   C556.163940,723.629578 553.202332,724.210632 553.103882,728.515381   C552.913391,736.838379 552.485413,745.159180 552.459595,753.481812   C552.441711,759.238159 554.281433,760.650024 561.003784,760.131409  M601.685364,560.530273   C601.671753,557.376831 601.718689,554.221619 601.623962,551.070618   C601.556152,548.813660 600.715759,547.072449 598.002258,547.552124   C595.650452,547.967896 593.333862,548.582581 588.942200,549.574463   C597.944946,553.422974 597.407898,560.070312 597.261047,566.609985   C597.216492,568.596924 597.221313,570.618835 597.538635,572.570190   C597.841614,574.434021 598.064575,576.593567 601.309326,577.214111   C602.661072,571.949280 601.278870,566.671631 601.685364,560.530273  M360.644165,463.254333   C360.279083,455.759277 361.522675,448.174438 359.895691,440.023926   C355.973114,441.946320 352.756042,443.376892 350.342468,447.972870   C355.321014,445.604004 355.527374,448.733429 355.728790,451.235992   C356.115234,456.036865 356.101532,460.868591 356.339142,465.683319   C356.455841,468.048157 356.437775,470.553375 358.963837,472.154938   C360.862610,469.488892 360.546234,466.790436 360.644165,463.254333  M692.757141,537.250793   C695.598694,539.113159 695.147705,542.031555 695.318848,544.833923   C695.591187,549.294006 694.328979,553.921448 696.195801,558.458069   C698.944275,557.911011 699.543518,556.249268 699.578247,554.361511   C699.703125,547.580017 699.751160,540.796753 699.785706,534.014038   C699.792480,532.689270 699.748291,531.040527 698.196411,530.718628   C695.460754,530.151062 693.566956,532.149597 691.650635,533.624817   C690.201843,534.740173 690.928711,535.938110 692.757141,537.250793  M436.603760,573.596008   C437.369934,575.086853 436.609863,577.356079 438.883453,578.166870   C440.849579,576.952942 440.584473,575.046448 440.447205,573.289062   C439.867920,565.870239 439.094360,558.475586 440.213318,551.019226   C440.635132,548.208191 436.981598,546.309021 434.189301,547.801453   C432.735535,548.578491 431.459564,549.687134 430.977020,551.792114   C434.773315,553.988770 435.396271,557.806335 435.599457,561.876892   C435.780884,565.511658 436.170197,569.136047 436.603760,573.596008  M341.265442,676.729858   C344.012817,669.156677 342.303864,661.309326 342.541077,653.594360   C342.615509,651.172668 339.895691,650.376221 337.829163,649.775635   C335.861389,649.203674 334.758606,650.605530 333.912598,652.109436   C333.107269,653.540955 332.882477,655.374634 334.385468,656.127380   C338.622803,658.249573 337.886078,662.043884 338.171844,665.622131   C338.478271,669.459595 337.147003,673.696960 341.265442,676.729858  M420.957184,458.204956   C422.105042,463.951416 420.127411,470.265930 424.200378,475.581421   C424.883057,472.642914 424.809174,469.737701 424.898529,466.837524   C425.082550,460.864807 425.396484,454.895935 425.562317,448.922882   C425.609894,447.210175 425.166931,445.325897 423.287048,444.913330   C421.403137,444.499847 420.423370,446.200226 419.475006,447.583038   C416.982544,451.217194 419.481171,454.225159 420.957184,458.204956  M696.773621,513.047913   C696.642761,515.841736 695.174927,518.812439 697.759888,521.453552   C700.864807,520.523560 700.668091,518.124268 700.755493,515.825806   C700.974365,510.066559 700.020386,504.264984 701.521851,498.542786   C701.892517,497.130280 701.878845,495.102264 699.984924,494.918488   C697.510681,494.678406 695.050659,495.605957 693.118103,497.218414   C691.757324,498.353790 691.913940,500.271820 693.230530,501.139069   C697.465942,503.929016 697.182739,508.010468 696.773621,513.047913  M700.531677,480.388824   C700.676514,474.235199 700.853943,468.082062 700.947876,461.927673   C700.979492,459.855499 700.015564,458.410614 697.809448,458.108002   C695.916199,457.848328 694.080688,457.943939 692.940735,459.775909   C691.870178,461.496277 692.458862,462.983429 693.913086,464.165710   C696.470703,466.245056 696.132751,469.128662 696.302917,471.956116   C696.542114,475.931458 695.434448,480.074280 697.149902,483.955231   C699.152466,483.560852 699.671021,482.296051 700.531677,480.388824  M699.742249,585.326233   C699.820923,581.025085 699.580750,576.723206 700.415527,572.437866   C700.681946,571.070312 700.320496,568.994507 698.617249,568.756348   C696.011902,568.391968 693.888733,569.989990 692.130371,571.786804   C691.061768,572.878723 690.997925,574.601868 692.305420,575.276184   C696.401367,577.388733 695.405762,580.902222 695.462524,584.361389   C695.521118,587.934082 694.112549,591.873779 697.126526,595.193909   C700.203003,592.620117 699.594910,589.327271 699.742249,585.326233  M603.886353,450.724091   C603.580505,448.590546 605.129089,445.222382 602.149475,444.751343   C599.130737,444.274109 596.243164,446.103912 594.532654,449.613739   C600.191956,451.176422 600.168457,455.598816 600.193115,459.999512   C600.209839,462.981964 600.173340,465.966461 600.278320,468.945923   C600.328674,470.374756 600.234314,472.092163 603.856934,472.082184   C603.856934,465.305176 603.856934,458.487000 603.886353,450.724091  M483.918304,640.128662   C486.878082,644.482483 488.675690,649.113708 487.458801,654.507263   C487.316833,655.136414 487.396332,655.837646 487.481476,656.491272   C487.658630,657.851624 488.007538,659.360291 489.651031,659.358521   C491.333374,659.356689 491.680328,657.833862 491.715179,656.461426   C491.837402,651.648743 492.018005,646.831299 491.913422,642.021423   C491.851929,639.193481 493.235840,635.143127 489.660675,634.111694   C486.207275,633.115356 486.137177,637.726440 483.918304,640.128662  M665.957092,445.536652   C660.248108,448.627472 660.242554,448.632721 664.741638,453.409241   C665.746948,454.476532 665.795105,455.816650 665.858521,457.133453   C666.002258,460.120575 665.968872,463.120300 666.221619,466.096771   C666.401123,468.210327 665.443420,470.759613 667.660034,472.178040   C669.071960,472.082184 669.688416,471.380859 669.701050,470.562500   C669.823364,462.595551 669.938965,454.626678 669.876526,446.659790   C669.858582,444.364197 668.171387,444.665649 665.957092,445.536652  M332.912903,576.507507   C333.102966,573.188599 333.320282,569.870911 333.471344,566.550232   C333.544586,564.940369 334.057068,562.796936 331.685669,562.591614   C329.143555,562.371521 326.718689,563.227417 325.156097,565.485107   C323.998413,567.157776 324.377258,568.703857 326.094055,569.740723   C328.956421,571.469543 329.198059,574.192993 329.248474,577.123779   C329.315033,580.991455 328.608704,584.936096 329.897095,589.531677   C334.286530,585.712891 332.503967,581.325928 332.912903,576.507507  M331.489532,456.638428   C328.821045,456.644165 326.838715,458.328918 324.776398,459.618530   C323.040222,460.704132 322.705475,462.786774 324.948242,463.391205   C328.564178,464.365662 328.125580,467.024323 328.566711,469.611450   C329.264648,473.704681 328.100494,478.119324 331.130768,481.979675   C333.402100,473.752716 332.995178,465.425354 331.489532,456.638428  M697.403198,628.062378   C699.291077,628.084473 699.688232,626.673950 699.476318,625.361938   C698.451233,619.014587 699.185303,612.820435 700.634399,606.633362   C700.937378,605.339600 700.739197,603.578857 699.016235,603.558533   C696.166382,603.524902 693.302612,604.197083 691.685120,606.859436   C690.819397,608.284363 691.304749,610.072510 693.028809,610.515808   C696.471924,611.401001 695.945679,613.944336 696.021667,616.415344   C696.137390,620.179688 695.105957,624.034058 697.403198,628.062378  M493.697906,434.580505   C492.829803,435.421234 491.859711,436.685699 492.383209,437.609467   C495.604736,443.294037 494.877655,449.686249 495.979462,455.741516   C496.068665,456.231781 496.835358,456.598816 497.363556,457.094818   C497.848267,456.561279 498.417206,456.230804 498.441193,455.864563   C498.840332,449.773956 499.381897,443.680481 499.428986,437.584106   C499.452820,434.495941 497.344238,433.288757 493.697906,434.580505  M486.428162,670.158203   C484.466278,671.428528 481.501984,673.324646 484.682190,675.199646   C488.928955,677.703491 488.662567,681.285095 489.082306,685.013489   C489.309235,687.029114 488.454620,689.307617 491.067627,691.930420   C492.499420,684.331787 492.881287,677.535034 491.858063,670.784302   C491.432770,667.978210 488.928986,668.828064 486.428162,670.158203  M326.376312,605.213806   C328.778229,607.049255 329.739227,609.267639 329.669769,612.482666   C329.577484,616.757690 329.689514,621.152466 331.293365,625.322876   C331.765320,621.560059 331.754242,617.820190 331.769012,614.080383   C331.780029,611.296448 331.278870,608.437927 333.546143,606.095276   C335.160248,604.427612 335.122406,602.484802 333.662659,600.704468   C332.211334,598.934448 330.209656,598.609863 328.253754,599.508545   C326.143158,600.478271 324.720795,602.055420 326.376312,605.213806  M464.786072,605.502563   C464.854309,603.671082 465.013916,601.837280 464.967316,600.008728   C464.911316,597.810181 465.902069,594.861633 462.615997,594.266113   C459.237457,593.653809 457.520752,595.750732 456.589874,599.210754   C461.345581,599.955261 461.979431,603.076111 461.980988,606.919373   C461.982544,610.787476 461.420868,614.800354 463.386200,619.210876   C465.753815,614.667664 464.325592,610.466614 464.786072,605.502563  M691.127258,664.077209   C691.438416,665.745911 690.884888,667.615662 692.603333,670.051880   C693.119202,660.766724 692.028076,652.510071 692.819214,644.161865   C690.339355,646.315063 685.663818,648.462036 687.913086,650.815979   C691.699890,654.778992 690.862549,658.903137 691.127258,664.077209  M330.888031,519.349854   C330.499237,515.621826 331.653992,512.140015 333.525879,507.628906   C329.845520,509.421875 325.802094,509.755920 326.480896,513.469055   C327.214661,517.482727 327.762390,521.682983 329.013153,525.917236   C331.455658,524.177917 330.592224,522.030884 330.888031,519.349854  M328.157074,495.572784   C328.407959,497.578461 327.618500,500.574493 330.793884,500.470673   C333.774475,500.373230 332.417816,497.466461 332.798157,495.718048   C333.181976,493.953613 333.562683,492.185272 334.047333,490.447205   C334.345093,489.379578 334.367188,488.503082 333.280853,487.903900   C332.242523,487.331116 331.298401,487.668152 330.573212,488.404633   C328.854767,490.149902 328.312653,492.385101 328.157074,495.572784  M330.942413,430.084106   C328.007935,428.790802 328.355255,431.052155 328.499664,432.552643   C328.894012,436.648895 329.463196,440.730133 330.047302,444.805237   C330.228180,446.067322 330.416565,447.497650 333.437897,447.693970   C329.887817,442.052948 332.583374,436.270203 330.942413,430.084106  M336.976257,543.840637   C336.679596,540.305237 334.566559,538.777283 331.254578,539.224731   C327.308624,539.757629 328.828217,542.753296 328.952789,545.076172   C329.123627,548.261414 329.259003,551.448486 329.409576,554.634705   C329.932465,551.166260 329.956329,547.696228 330.298553,544.257874   C330.474823,542.487000 331.626770,541.055420 333.662659,541.431885   C335.486816,541.769165 335.742096,543.443298 335.648682,544.969482   C335.514252,547.166138 335.175323,549.350281 334.851227,552.170044   C337.408112,549.653381 336.790894,547.055603 336.976257,543.840637  z"/>
<path fill="#ffffff" opacity="1.000000" stroke="none" d=" M651.029602,270.108459   C659.839661,290.289673 663.831421,310.981384 663.417969,332.653412   C663.049255,351.978180 663.302307,371.314606 663.250977,390.645813   C663.233948,397.064423 662.966492,397.281403 656.369385,397.286835   C640.704407,397.299744 625.039429,397.321747 609.374451,397.320679   C602.504089,397.320221 601.903198,396.743958 601.883972,389.975830   C601.828857,370.644745 601.929321,351.312378 601.740906,331.982727   C601.415344,298.571686 587.107361,272.540436 558.120605,256.147247   C508.183289,227.905701 445.793610,251.546875 428.416351,303.196503   C425.215240,312.711029 423.928162,322.621674 423.984161,332.705048   C424.090637,351.868866 424.088165,371.033386 424.092102,390.197632   C424.093475,396.972076 423.811829,397.257416 417.078796,397.300049   C401.081940,397.401367 385.083221,397.347595 369.088531,397.579773   C364.401581,397.647797 362.662872,396.032623 362.701813,391.207336   C362.895477,367.211334 362.183807,343.191956 362.997620,319.221771   C363.743622,297.248596 370.483612,276.659515 381.746124,257.728851   C406.164734,216.684677 441.790924,190.865082 488.960144,183.447357   C535.880249,176.068787 578.028442,188.249527 614.185364,219.840958   C630.172546,233.809418 642.193726,250.513428 651.029602,270.108459  z"/>
<path fill="#ffffff" opacity="1.000000" stroke="none" d=" M521.975281,570.399414   C507.563660,573.230713 495.644623,569.560242 486.827942,558.213135   C477.770691,546.556396 476.210968,533.540527 482.537964,520.140930   C488.760376,506.962952 499.567383,499.719788 514.118347,499.136932   C532.944519,498.382751 550.399963,517.455261 548.945679,536.571777   C547.648499,553.624146 538.650208,565.061584 521.975281,570.399414  z"/>
</svg>